# File created by Blade
# Date/Time:  Thu Jan 22 19:01:15 2015
# Frame Rate: 120.000 fps
#------------------------------------------------------
:FULLY-SPECIFIED
:DEGREES
2859
root -3.302880 33.158882 0.188672 8.106294 2.900701 2.910862
RightUpLeg 0.631206 -9.218919 -1.189114
RightLeg -0.795513 -0.000000 0.000000
RightFoot -12.093443 -4.107584 3.630391
RightToeBase 5.366907 -0.000000 -0.000000
LeftUpLeg -1.446017 1.122800 2.062751
LeftLeg 1.196867 -0.000000 -0.000000
LeftFoot -9.904743 0.076138 -10.221535
LeftToeBase 7.217432 -0.000000 -0.000000
Spine -14.085646 6.105478 -3.483010
RightShoulder -9.922198 -35.952994 -8.440311
RightArm 127.704599 -54.889854 -39.972633
RightForeArm -30.047732 0.000000 101.995900
RightHand 19.182184 0.000000 6.853184
RightHandThumb1 -24.326973 -0.000000 -32.862282
LeftShoulder -21.083678 -9.729501 44.771647
LeftArm 34.291779 -67.218568 -41.011688
LeftForeArm -10.054996 -0.000000 104.163283
LeftHand 9.953392 -0.000000 36.762142
LeftHandThumb1 -26.253704 0.000000 33.147579
Head 17.662195 -4.682874 7.314175
2860
root -3.299319 33.158756 0.184226 8.080747 2.937477 2.920679
RightUpLeg 0.645476 -9.262310 -1.204535
RightLeg -0.774722 -0.000000 0.000000
RightFoot -12.106179 -4.102038 3.633319
RightToeBase 5.324061 -0.000000 -0.000000
LeftUpLeg -1.435158 1.077283 2.054209
LeftLeg 1.198403 -0.000000 -0.000000
LeftFoot -9.900021 0.073741 -10.226577
LeftToeBase 7.242103 -0.000000 -0.000000
Spine -14.013418 6.135074 -3.504030
RightShoulder -10.027254 -36.178445 -8.568609
RightArm 127.327474 -55.363933 -39.707376
RightForeArm -29.970101 -0.000000 101.754420
RightHand 19.386999 -0.000000 6.651669
RightHandThumb1 -24.326973 -0.000000 -32.862282
LeftShoulder -21.157547 -9.572726 44.690175
LeftArm 33.000794 -66.820548 -39.690962
LeftForeArm -9.902844 -0.000000 103.696818
LeftHand 10.188456 -0.000000 36.152204
LeftHandThumb1 -26.253704 0.000000 33.147579
Head 17.724337 -4.634678 7.183860
2861
root -3.297317 33.158192 0.178936 8.051148 2.976750 2.917833
RightUpLeg 0.663167 -9.273489 -1.201932
RightLeg -0.755335 -0.000000 0.000000
RightFoot -12.125434 -4.136902 3.631468
RightToeBase 5.368668 -0.000000 -0.000000
LeftUpLeg -1.431270 1.087609 2.051257
LeftLeg 1.202803 -0.000000 -0.000000
LeftFoot -9.907352 0.049073 -10.263928
LeftToeBase 7.348958 -0.000000 -0.000000
Spine -13.932102 6.149686 -3.512078
RightShoulder -10.099678 -36.374490 -8.689954
RightArm 126.947504 -55.838732 -39.494045
RightForeArm -29.917031 -0.000000 101.578397
RightHand 19.425172 0.000000 6.505589
RightHandThumb1 -24.326973 -0.000000 -32.862282
LeftShoulder -21.237437 -9.205026 44.505083
LeftArm 32.157348 -66.570537 -38.735805
LeftForeArm -9.613252 -0.000000 103.238820
LeftHand 10.315366 -0.000000 35.826472
LeftHandThumb1 -26.253704 0.000000 33.147579
Head 17.778393 -4.580736 7.077254
2862
root -3.296267 33.157889 0.173195 8.015400 3.007038 2.919010
RightUpLeg 0.687727 -9.296089 -1.206634
RightLeg -0.742868 -0.000000 0.000000
RightFoot -12.131183 -4.139381 3.631073
RightToeBase 5.371810 -0.000000 -0.000000
LeftUpLeg -1.414751 1.063683 2.053229
LeftLeg 1.213196 -0.000000 -0.000000
LeftFoot -9.906987 0.036075 -10.272655
LeftToeBase 7.307162 -0.000000 -0.000000
Spine -13.843372 6.181132 -3.531525
RightShoulder -10.154173 -36.496889 -8.844699
RightArm 126.627887 -56.375534 -39.300880
RightForeArm -29.896932 -0.000000 101.346372
RightHand 19.693912 -0.000000 6.209190
RightHandThumb1 -24.326973 -0.000000 -32.862282
LeftShoulder -21.316846 -9.083720 44.445516
LeftArm 30.899120 -66.113621 -37.426403
LeftForeArm -9.167282 -0.000000 102.805030
LeftHand 10.359068 -0.000000 35.541329
LeftHandThumb1 -26.253704 0.000000 33.147579
Head 17.827469 -4.555915 6.977284
2863
root -3.294330 33.158469 0.167058 7.973069 3.033753 2.929646
RightUpLeg 0.711000 -9.331185 -1.219864
RightLeg -0.714483 -0.000000 0.000000
RightFoot -12.146425 -4.146401 3.612716
RightToeBase 5.330607 -0.000000 -0.000000
LeftUpLeg -1.396181 1.032954 2.052240
LeftLeg 1.242389 -0.000000 -0.000000
LeftFoot -9.888658 0.001980 -10.234102
LeftToeBase 7.235814 -0.000000 -0.000000
Spine -13.744956 6.205776 -3.556109
RightShoulder -10.209241 -36.649994 -9.003350
RightArm 126.316699 -56.826223 -39.103302
RightForeArm -29.889798 -0.000000 101.117013
RightHand 19.724415 -0.000000 6.021781
RightHandThumb1 -24.326973 -0.000000 -32.862282
LeftShoulder -21.412707 -9.009587 44.403474
LeftArm 29.728666 -65.625741 -36.229328
LeftForeArm -8.597071 0.000000 102.350337
LeftHand 10.595899 -0.000000 35.060558
LeftHandThumb1 -26.253704 0.000000 33.147579
Head 17.881495 -4.567031 6.904158
